<svg width="69" height="69" viewBox="0 0 69 69" fill="none" xmlns="http://www.w3.org/2000/svg">
<path d="M61.591 0H7.4081C5.44853 0 3.56922 0.778437 2.18359 2.16406C0.797968 3.54969 0.0195313 5.429 0.0195312 7.38857L0.0195313 61.5714C0.0195313 63.531 0.797968 65.4103 2.18359 66.7959C3.56922 68.1816 5.44853 68.96 7.4081 68.96H28.5348V45.5151H18.8373V34.48H28.5348V26.0693C28.5348 16.5027 34.2302 11.2183 42.9533 11.2183C47.1309 11.2183 51.4994 11.9633 51.4994 11.9633V21.353H46.6861C41.9435 21.353 40.4643 24.2961 40.4643 27.3146V34.48H51.0515L49.3583 45.5151H40.4643V68.96H61.591C63.5505 68.96 65.4298 68.1816 66.8155 66.7959C68.2011 65.4103 68.9795 63.531 68.9795 61.5714V7.38857C68.9795 5.429 68.2011 3.54969 66.8155 2.16406C65.4298 0.778437 63.5505 0 61.591 0Z" fill="#FFF1E9"/>
</svg>
