<svg width="69" height="69" viewBox="0 0 69 69" fill="none" xmlns="http://www.w3.org/2000/svg">
<path d="M34.5017 0.0022094C15.4525 0.0022094 0.0195312 15.8372 0.0195312 35.353C0.0195312 50.9803 9.89867 64.2258 23.5902 68.8987C25.3208 69.2323 25.9458 68.1387 25.9458 67.193C25.9458 66.3535 25.9264 64.133 25.9135 61.1856C16.3167 63.3155 14.2951 56.4331 14.2951 56.4331C12.7241 52.359 10.4568 51.2653 10.4568 51.2653C7.33621 49.0802 10.7047 49.1266 10.7047 49.1266C14.1615 49.3674 15.9805 52.7611 15.9805 52.7611C19.0558 58.1697 24.0493 56.6055 26.0255 55.6952C26.3273 53.4173 27.226 51.8508 28.2044 50.9781C20.5493 50.0921 12.4999 47.0541 12.4999 33.5081C12.4999 29.6394 13.8361 26.4888 16.0451 24.0142C15.6637 23.1283 14.4956 19.5269 16.349 14.6573C16.349 14.6573 19.2347 13.7139 25.8316 18.283C28.5923 17.4986 31.5233 17.1076 34.4521 17.0877C37.3831 17.1076 40.3119 17.5009 43.0727 18.283C49.6307 13.7139 52.5143 14.6573 52.5143 14.6573C54.3656 19.5269 53.1975 23.1261 52.8613 24.0142C55.0487 26.4888 56.3849 29.6416 56.3849 33.5081C56.3849 47.0851 48.3247 50.0788 40.6611 50.9427C41.8593 52.001 42.9821 54.1773 42.9821 57.4804C42.9821 62.2086 42.939 66.0176 42.939 67.1687C42.939 68.0879 43.5425 69.1926 45.3183 68.8369C59.1112 64.2125 68.9795 50.956 68.9795 35.3508C68.9795 15.835 53.5466 0 34.4974 0L34.5017 0.0022094Z" fill="#F0EBEB"/>
</svg>
