<svg width="68" height="70" viewBox="0 0 68 70" fill="none" xmlns="http://www.w3.org/2000/svg">
<path d="M33.9817 0.0625C24.7439 0.0625 23.5926 0.107761 19.9774 0.26294C16.3472 0.443983 13.8917 1.01513 11.7251 1.86862C9.49057 2.75659 7.58736 3.93552 5.70751 5.85371C3.81492 7.76112 2.64241 9.69224 1.78001 11.9596C0.938861 14.158 0.375969 16.6495 0.197543 20.3328C0.0339859 24.0032 0 25.1692 0 34.5425C0 43.9158 0.0446065 45.0839 0.197543 48.7522C0.375969 52.4248 0.938861 54.927 1.78001 57.1254C2.65515 59.3928 3.81704 61.3239 5.70751 63.2313C7.58736 65.1516 9.49057 66.3413 11.7251 67.2164C13.8917 68.0591 16.3578 68.641 19.9774 68.8221C23.5947 68.988 24.7439 69.0225 33.9817 69.0225C43.2195 69.0225 44.3707 68.9772 47.986 68.8221C51.6055 68.641 54.0716 68.0569 56.2382 67.2164C58.4728 66.3284 60.376 65.1495 62.2558 63.2313C64.1484 61.3239 65.3209 59.4035 66.1833 57.1254C67.0139 54.927 67.5874 52.4248 67.7658 48.7522C67.9294 45.0818 67.9633 43.9158 67.9633 34.5425C67.9633 25.1692 67.9187 24.0011 67.7658 20.3328C67.5874 16.6602 67.0117 14.145 66.1833 11.9596C65.3082 9.69224 64.1463 7.76112 62.2558 5.85371C60.376 3.93336 58.4834 2.74366 56.2382 1.86862C54.0716 1.01513 51.6055 0.443983 47.986 0.26294C44.3686 0.0969843 43.2195 0.0625 33.9817 0.0625ZM33.9817 6.26968C43.0538 6.26968 44.1371 6.31494 47.7226 6.47012C51.0299 6.62745 52.8311 7.18782 54.027 7.66198C55.6222 8.28916 56.7374 9.03058 57.9439 10.2418C59.127 11.4423 59.8577 12.5868 60.4758 14.2054C60.9431 15.4188 61.4954 17.2465 61.6505 20.6022C61.8034 24.2403 61.848 25.3417 61.848 34.5447C61.848 43.7477 61.8034 44.849 61.6377 48.4871C61.4593 51.8428 60.907 53.6705 60.4418 54.8839C59.7982 56.5025 59.0803 57.6341 57.895 58.8582C56.6991 60.0587 55.5606 60.8001 53.9781 61.4273C52.7971 61.9015 50.9704 62.4619 47.6504 62.6192C44.0458 62.7744 42.9837 62.8196 33.8882 62.8196C24.7927 62.8196 23.7328 62.7744 20.1239 62.6063C16.8167 62.4252 14.992 61.8648 13.7962 61.3928C12.1818 60.7398 11.0752 60.0113 9.8899 58.8087C8.69402 57.5953 7.93359 56.44 7.34733 54.8344C6.87153 53.636 6.32775 51.7825 6.15145 48.4138C6.03038 44.7994 5.97303 43.6787 5.97303 34.4929C5.97303 25.3115 6.03038 24.1886 6.15145 20.5289C6.32775 17.1603 6.87153 15.311 7.34733 14.1084C7.93359 12.4682 8.69615 11.3475 9.8899 10.1341C11.073 8.93359 12.1818 8.15769 13.7962 7.54991C14.992 7.0779 16.7721 6.51753 20.0921 6.34942C23.6967 6.21795 24.7587 6.17053 33.8415 6.17053L33.9817 6.26968ZM33.9817 16.8456C24.336 16.8456 16.5363 24.7705 16.5363 34.5468C16.5363 44.3339 24.3467 52.248 33.9817 52.248C43.6273 52.248 51.4271 44.3231 51.4271 34.5468C51.4271 24.7597 43.6167 16.8456 33.9817 16.8456ZM33.9817 46.0409C27.7198 46.0409 22.6537 40.9005 22.6537 34.5468C22.6537 28.1931 27.7198 23.0528 33.9817 23.0528C40.2436 23.0528 45.3096 28.1931 45.3096 34.5468C45.3096 40.9005 40.2436 46.0409 33.9817 46.0409ZM56.2085 16.1387C56.2085 18.4297 54.3711 20.2789 52.1238 20.2789C49.8658 20.2789 48.0434 18.4276 48.0434 16.1387C48.0434 13.8605 49.8786 12.007 52.1238 12.007C54.369 12.007 56.2085 13.8605 56.2085 16.1387Z" fill="#F0EBEB"/>
</svg>
