<svg width="68" height="69" viewBox="0 0 68 69" fill="none" xmlns="http://www.w3.org/2000/svg">
<path d="M57.9158 58.7672H47.8636V42.7625C47.8636 38.9461 47.785 34.0415 42.6071 34.0415C37.3654 34.0415 36.5668 38.1811 36.5668 42.4802V58.765H26.5019V25.857H36.1697V30.3458H36.2992C37.65 27.7534 40.9356 25.0274 45.8374 25.0274C56.0341 25.0274 57.9264 31.8391 57.9264 40.6959V58.765L57.9158 58.7672ZM15.1308 21.3597C11.8876 21.3597 9.28803 18.6984 9.28803 15.4207C9.28803 12.1538 11.8982 9.49679 15.1308 9.49679C18.3633 9.49679 20.982 12.1538 20.982 15.4207C20.982 18.6984 18.3633 21.3597 15.1308 21.3597ZM20.1728 58.7672H10.0866V25.8592H20.1728V58.7672ZM62.9621 0H5.03183C2.26445 0 0.0195312 2.22174 0.0195312 4.97143V63.9886C0.0195312 66.7383 2.26445 68.96 5.03183 68.96H62.9515C65.7146 68.96 67.9829 66.7383 67.9829 63.9886V4.97143C67.9829 2.22174 65.7146 0 62.9515 0L62.9621 0Z" fill="#F0EBEB"/>
</svg>
