<?xml version="1.0" encoding="UTF-8" standalone="no"?>
<!-- Created with Inkscape (http://www.inkscape.org/) -->

<svg
   width="101.89897mm"
   height="95.912415mm"
   viewBox="0 0 101.89897 95.912415"
   version="1.1"
   id="svg175"
   inkscape:version="1.1.2 (0a00cf5339, 2022-02-04)"
   sodipodi:docname="phoenix.svg"
   xmlns:inkscape="http://www.inkscape.org/namespaces/inkscape"
   xmlns:sodipodi="http://sodipodi.sourceforge.net/DTD/sodipodi-0.dtd"
   xmlns="http://www.w3.org/2000/svg"
   xmlns:svg="http://www.w3.org/2000/svg">
  <sodipodi:namedview
     id="namedview177"
     pagecolor="#505050"
     bordercolor="#ffffff"
     borderopacity="1"
     inkscape:pageshadow="0"
     inkscape:pageopacity="0"
     inkscape:pagecheckerboard="1"
     inkscape:document-units="mm"
     showgrid="false"
     inkscape:zoom="0.77504209"
     inkscape:cx="58.061363"
     inkscape:cy="329.01439"
     inkscape:window-width="1920"
     inkscape:window-height="1045"
     inkscape:window-x="0"
     inkscape:window-y="1"
     inkscape:window-maximized="1"
     inkscape:current-layer="layer1" />
  <defs
     id="defs172" />
  <g
     inkscape:label="Ebene 1"
     inkscape:groupmode="layer"
     id="layer1"
     transform="translate(-105.06086,-85.181722)">
    <g
       transform="matrix(1.1254322,0,0,1.1267612,-234.17325,92.613711)"
       id="g345"
       style="display:inline">
      <path
         d="m 361.31454,78.289965 c -1.32507,-0.335728 -2.82936,-1.009456 -4.43782,-1.966738 -2.96016,-1.771653 -4.91018,-3.996995 -7.32286,-8.381888 -2.47084,-4.475647 -3.42527,-9.659049 -3.08612,-16.809166 0.19137,-4.006084 0.40697,-3.829139 0.86236,0.664636 0.37789,3.738409 0.671,5.430655 1.40014,8.132374 0.83332,3.112313 2.06388,6.328957 3.26537,8.552037 2.81965,5.219691 6.03659,8.311571 9.86881,9.473017 0.80425,0.238188 1.45587,0.469575 1.45587,0.512665 0,0.133898 -1.20154,0.0272 -2.00575,-0.176937 z m -35.47343,-7.460906 c -1.30566,-0.34481 -3.43494,-1.107005 -3.54879,-1.274862 -0.14298,-0.222314 0.009,-0.195089 1.75139,0.265416 1.91127,0.512655 4.63644,0.698663 6.24491,0.424187 0.63223,-0.106677 1.97668,-0.567107 2.97954,-1.009447 2.36666,-1.063916 4.05022,-2.445395 5.65869,-4.634434 1.40014,-1.914575 2.09052,-3.357308 2.94319,-6.140685 1.08766,-3.597741 1.31537,-4.961089 1.82648,-10.899859 0.11394,-1.247661 0.13319,-1.29301 0.36821,-0.884697 0.50144,0.87561 0.66371,2.799258 0.56926,6.778109 -0.0775,3.030636 -0.18169,4.235179 -0.45542,5.396625 -1.1918,4.890755 -3.87823,8.497579 -7.86307,10.561878 -0.53048,0.274475 -1.7223,0.725887 -2.65006,1.018518 -1.5237,0.469566 -1.92095,0.524006 -4.32397,0.567121 -1.81679,0.03622 -2.91413,-0.01528 -3.49066,-0.167922 z m 33.89403,-9.649963 c -4.50321,-0.893753 -8.45898,-3.915327 -10.35084,-7.939553 -0.93749,-1.96674 -1.55277,-4.012865 -1.86527,-6.210985 -0.30277,-2.100585 -0.35851,-4.031036 -0.11393,-3.783768 0.0849,0.08847 0.66374,1.585642 1.27901,3.33234 1.8919,5.308148 4.01146,8.71082 7.10486,11.367179 1.64725,1.417767 3.54879,2.402278 5.52546,2.844627 1.60121,0.356134 5.34623,0.240449 7.85581,-0.247268 1.15304,-0.222297 2.12684,-0.381108 2.15592,-0.353884 0.1695,0.13152 -2.21406,0.771287 -3.66992,0.991312 -2.06387,0.301703 -6.38783,0.301703 -7.92118,0 z m 0.30282,-6.530848 c 0.15259,-0.08846 1.44855,-0.433258 2.88504,-0.778068 1.4389,-0.338007 3.21935,-0.834798 3.94607,-1.091121 3.28477,-1.143294 7.78798,-3.500219 10.20068,-5.342187 0.48203,-0.362962 1.76107,-1.533471 2.83902,-2.597367 l 1.95972,-1.930451 -2.10022,-0.133899 c -1.15548,-0.07023 -3.65295,-0.133892 -5.54727,-0.133892 -1.89187,-0.0088 -3.41554,-0.034 -3.3768,-0.07023 0.0387,-0.02721 1.2112,-0.664645 2.62104,-1.408707 1.40982,-0.753114 3.17817,-1.780714 3.92667,-2.286593 1.62785,-1.106987 5.1185,-4.235173 6.16982,-5.519123 0.82362,-1.020797 3.77651,-6.478675 3.50035,-6.478675 -0.10402,0 -0.83089,0.231384 -1.62783,0.505879 -0.80425,0.283541 -2.26009,0.716819 -3.24359,0.975421 -2.65979,0.698691 -5.21539,1.71721 -7.25988,2.914942 -1.01257,0.582998 -1.85314,1.000384 -1.89188,0.911916 -0.0364,-0.08847 0.2834,-0.514925 0.70007,-0.948204 1.01255,-1.036672 2.51686,-3.110033 3.53908,-4.863546 1.26935,-2.164092 2.09054,-4.432533 2.59439,-7.107028 0.48206,-2.597377 0.52808,-4.325928 0.18894,-6.503631 l -0.21803,-1.417769 -0.70004,1.229499 c -1.18456,2.10965 -2.33763,3.057853 -8.6964,7.082071 -5.81855,3.686221 -7.40035,4.899836 -9.67986,7.451834 -1.59875,1.780733 -1.2596,0.814376 0.42638,-1.213614 1.98634,-2.40228 4.26581,-4.457489 11.5911,-10.430302 4.12534,-3.375446 6.04629,-7.5766001 5.3462,-11.7596014 -0.36093,-2.134604 -1.18453,-4.23519097 -3.57786,-9.135027 l -0.48205,-0.993582 0.50144,0.417404 c 0.85994,0.710016 3.35017,4.298695 4.65583,6.72592903 1.39045,2.56106997 2.48777,5.40569887 3.13213,8.06431787 0.35852,1.4971745 0.41665,2.2139915 0.41665,5.2174125 0,3.119122 -0.0486,3.661264 -0.43602,5.06997 -0.80424,2.942177 -1.82646,4.979234 -3.88068,7.762619 -0.69037,0.93913 -1.20148,1.701334 -1.13366,1.701334 0.20834,0 4.96833,-1.959938 7.4658,-3.076013 4.03084,-1.798868 5.30745,-3.411735 6.40478,-8.107411 0.18897,-0.78942 0.38032,-1.24085 0.47479,-1.143292 0.30282,0.265404 0.39727,2.933096 0.16952,4.625342 -0.73885,5.539538 -3.56818,10.650345 -8.15618,14.708598 -2.54593,2.261631 -4.21254,3.43895 -6.53803,4.652566 l -2.02512,1.045754 1.91126,0.05441 c 2.4224,0.06121 5.00466,-0.213232 6.71728,-0.73724 1.74172,-0.521745 2.11959,-0.74406 3.37924,-1.957676 l 1.04889,-1.009447 -0.28342,0.744042 c -0.92777,2.445378 -3.98481,5.84804 -7.88246,8.790227 -3.94606,2.969383 -10.36051,5.972795 -15.13021,7.070736 -1.76834,0.408315 -5.36558,0.744042 -4.84477,0.451414 z m -30.71587,-0.689599 c -3.42527,-0.655576 -7.99387,-2.082435 -10.21763,-3.198511 -5.39465,-2.703979 -10.3339,-7.082079 -12.99369,-11.555449 -1.21118,-2.02118 -1.08764,-2.082434 0.79454,-0.426475 2.23347,1.959939 4.06964,2.844628 7.91153,3.792851 1.36381,0.337989 5.11851,0.930049 5.82824,0.911914 0.11395,0 -1.11668,-0.619287 -2.73487,-1.381482 -3.84916,-1.807955 -5.98814,-3.15541 -8.21187,-5.174331 -3.90004,-3.545578 -6.53802,-7.948623 -7.76861,-12.955064 -0.42634,-1.755777 -0.63464,-5.131223 -0.41663,-6.893801 l 0.15025,-1.249924 0.56927,2.515712 c 0.64193,2.844628 1.36136,4.530071 2.7155,6.362982 1.88217,2.542919 5.59085,5.360321 8.76175,6.655615 1.23057,0.494511 3.75713,1.213616 3.88065,1.097924 0.0362,-0.0272 -0.54986,-0.478639 -1.29839,-1.000384 -4.36998,-3.03972 -6.98128,-7.116115 -7.88001,-12.308583 -0.44571,-2.588286 -0.29553,-6.610234 0.34882,-9.046549 1.22089,-4.661647 3.52944,-9.0306664 7.22115,-13.6832514 1.31292,-1.646894 2.96983,-3.268824 3.074,-2.985259 0.0387,0.09748 -0.9181,2.676756 -2.11958,5.72328503 -2.24314,5.66429197 -2.4224,6.31080247 -2.67675,9.44579047 -0.14298,1.6945329 0.17934,4.9021069 0.66132,6.6034329 0.41664,1.497174 1.68356,3.969777 2.81966,5.528194 0.98347,1.338391 3.65294,3.677158 5.4213,4.750125 3.28474,1.984892 8.17554,3.20759 12.00774,3.00343 1.40258,-0.07949 1.6763,-0.06122 1.39291,0.09748 -0.2471,0.133889 -1.4583,0.195071 -3.66264,0.195071 -3.89767,0 -4.98772,-0.213225 -8.22403,-1.649156 -4.69216,-2.082433 -8.63824,-5.634816 -10.89104,-9.826897 -0.67101,-1.247632 -1.10704,-2.399997 -1.60847,-4.244242 l -0.69037,-2.542922 -0.19864,0.841591 c -0.70977,2.978456 -0.63467,8.887766 0.14299,11.600809 0.51112,1.798894 1.61815,3.808725 2.89475,5.271872 1.48492,1.701333 3.06676,2.817404 5.92275,4.207956 1.45824,0.710032 1.47763,0.728169 0.95682,0.859753 -0.30278,0.07023 -1.44856,0.124701 -2.5556,0.106677 -3.08373,-0.03622 -6.73667,-1.009474 -9.84945,-2.622334 -0.79454,-0.417386 -1.51398,-0.753131 -1.5915,-0.753131 -0.0849,0 0.56929,1.027608 1.4486,2.286596 1.15546,1.655976 2.04448,2.692646 3.23629,3.790569 2.85843,2.633655 7.44642,5.469221 11.37311,7.02764 1.061,0.417385 1.9694,0.85067 2.00575,0.957292 0.0486,0.13389 -0.671,0.231379 -2.36424,0.328917 -2.83906,0.167918 -3.52945,0.149711 -7.14363,-0.204161 -1.48736,-0.151928 -2.73488,-0.24045 -2.77363,-0.213224 -0.0291,0.03622 2.02512,1.5153 4.57103,3.296043 5.28081,3.695291 5.80887,3.95163 12.23548,5.911569 l 3.47126,1.061628 -1.18209,-0.0088 c -0.66132,0 -1.90159,-0.1407 -2.76397,-0.308519 z m 10.63668,-13.656036 c -1.10702,-2.082432 -1.22088,-5.351258 -0.3028,-8.524802 0.27375,-0.911917 0.73885,-2.524775 1.05134,-3.570536 0.77516,-2.667683 0.82117,-4.970152 0.12115,-6.326696 -0.8793,-1.701327 -2.26006,-2.640467 -5.34619,-3.63404 -1.00288,-0.326656 -1.85313,-0.671448 -1.89188,-0.769005 -0.0387,-0.106674 0.70976,-0.347071 1.81679,-0.57617 2.65977,-0.567124 6.20858,-0.576195 8.17555,-0.0182 1.67386,0.478639 3.50036,1.302078 6.28369,2.835539 2.29883,1.274878 3.37678,1.744444 5.27837,2.320621 0.6831,0.204162 1.23057,0.435541 1.23057,0.505873 0,0.07022 -0.33913,0.265404 -0.76549,0.442349 -0.61528,0.249513 -1.20148,0.310767 -2.81965,0.310767 -1.27903,0 -2.13897,-0.07023 -2.26249,-0.186011 -0.15027,-0.133898 0,-0.213224 0.58619,-0.292629 1.49704,-0.204161 1.40256,-0.319854 -1.53093,-1.728552 -1.53337,-0.744042 -3.29446,-1.540273 -3.89036,-1.789803 -1.41952,-0.567106 -3.58513,-1.061636 -4.61706,-1.061636 h -0.80429 l 1.18211,0.911916 c 1.4389,1.116076 1.77079,1.77165 1.77079,3.472987 0,1.603794 -0.34155,3.216652 -1.64724,7.73539 -0.58622,2.057481 -1.16514,4.183021 -1.26935,4.722901 -0.27371,1.408707 -0.23493,3.350491 0.0969,4.820441 0.15988,0.700943 0.25434,1.311165 0.19866,1.356535 -0.0486,0.04539 -0.34157,-0.39018 -0.64437,-0.966357 z m 10.51318,-0.167926 c 0.77514,-2.030253 0.76547,-5.741417 -0.0486,-9.268855 -0.13079,-0.594331 -0.20834,-1.106997 -0.15985,-1.152364 0.0459,-0.03401 0.28339,0.106666 0.53048,0.319846 1.09735,0.930066 1.71262,3.978856 1.38075,6.750891 -0.22771,1.887334 -0.54988,2.871843 -1.24993,3.783761 -0.81394,1.063896 -0.98351,0.905113 -0.47238,-0.433279 z"
         style="fill:#fd0707;fill-opacity:1;fill-rule:nonzero;stroke:none;stroke-width:2.34415"
         id="path178" />
    </g>
  </g>
</svg>
