<svg width="69" height="69" viewBox="0 0 69 69" fill="none" xmlns="http://www.w3.org/2000/svg">
<path d="M61.591 0H7.4081C3.329 0 0.0195312 3.30946 0.0195312 7.38857V61.5714C0.0195312 65.6505 3.329 68.96 7.4081 68.96H61.591C65.6701 68.96 68.9795 65.6505 68.9795 61.5714V7.38857C68.9795 3.30946 65.6701 0 61.591 0ZM54.0639 24.4439C54.0946 24.8749 54.0946 25.3212 54.0946 25.7522C54.0946 39.0979 43.9353 54.4753 25.3716 54.4753C19.6454 54.4753 14.3349 52.8129 9.87096 49.9498C10.6868 50.0422 11.4718 50.073 12.303 50.073C17.0286 50.073 21.3694 48.4721 24.8328 45.763C20.3997 45.6706 16.6746 42.7614 15.397 38.7592C16.9517 38.9901 18.3524 38.9901 19.9533 38.5745C15.3354 37.6355 11.872 33.5718 11.872 28.6615V28.5384C13.2112 29.2926 14.7813 29.7544 16.4283 29.816C15.0436 28.8949 13.9085 27.6454 13.1242 26.1789C12.3399 24.7124 11.9309 23.0745 11.9336 21.4115C11.9336 19.5335 12.4262 17.8095 13.3036 16.3164C18.2755 22.4428 25.741 26.4449 34.1147 26.8759C32.6832 20.0261 37.809 14.4693 43.9661 14.4693C46.8754 14.4693 49.4922 15.6853 51.3393 17.6556C53.6175 17.2246 55.8032 16.378 57.7427 15.2235C56.9885 17.5632 55.403 19.5335 53.3096 20.7804C55.3415 20.5649 57.3117 19.9953 59.1281 19.2103C57.7581 21.2267 56.0341 23.0123 54.0639 24.4439Z" fill="#F0EBEB"/>
</svg>
